#define foxel35_width 64
#define foxel35_height 96
static unsigned char foxel35_bits[] = {
 0x77, 0x77, 0x77, 0x77, 0x77, 0x77, 0x77, 0x77, 0x55, 0x55, 0x55, 0x55,
 0x55, 0x55, 0x55, 0x55, 0x55, 0x55, 0x55, 0x55, 0x55, 0x55, 0x55, 0x55,
 0x55, 0x55, 0x55, 0x55, 0x55, 0x55, 0x55, 0x55, 0x77, 0x77, 0x77, 0x77,
 0x77, 0x77, 0x77, 0x77, 0x00, 0x00, 0x00, 0x00, 0x00, 0x00, 0x00, 0x00,
 0x77, 0x77, 0x77, 0x77, 0x77, 0x77, 0x77, 0x77, 0x55, 0x55, 0x55, 0x55,
 0x55, 0x57, 0x55, 0x75, 0x55, 0x55, 0x55, 0x55, 0x55, 0x55, 0x55, 0x75,
 0x55, 0x55, 0x55, 0x55, 0x55, 0x57, 0x55, 0x75, 0x77, 0x77, 0x77, 0x77,
 0x77, 0x77, 0x77, 0x77, 0x00, 0x00, 0x00, 0x00, 0x00, 0x00, 0x00, 0x00,
 0x20, 0x55, 0x56, 0x22, 0x14, 0x02, 0x00, 0x40, 0x20, 0x75, 0x43, 0x21,
 0x22, 0x27, 0x00, 0x40, 0x20, 0x50, 0x26, 0x02, 0x22, 0x72, 0x70, 0x20,
 0x00, 0x70, 0x13, 0x05, 0x22, 0x25, 0x02, 0x10, 0x20, 0x50, 0x52, 0x06,
 0x14, 0x00, 0x01, 0x11, 0x00, 0x00, 0x00, 0x00, 0x00, 0x00, 0x00, 0x00,
 0x22, 0x73, 0x71, 0x77, 0x77, 0x00, 0x04, 0x71, 0x35, 0x44, 0x15, 0x41,
 0x55, 0x22, 0x72, 0x42, 0x25, 0x26, 0x77, 0x27, 0x77, 0x00, 0x01, 0x24,
 0x25, 0x41, 0x44, 0x25, 0x45, 0x22, 0x72, 0x02, 0x22, 0x37, 0x34, 0x27,
 0x37, 0x10, 0x04, 0x21, 0x00, 0x00, 0x00, 0x00, 0x00, 0x00, 0x00, 0x00,
 0x26, 0x63, 0x73, 0x67, 0x75, 0x57, 0x51, 0x63, 0x55, 0x15, 0x15, 0x11,
 0x25, 0x54, 0x71, 0x55, 0x77, 0x13, 0x35, 0x53, 0x27, 0x34, 0x71, 0x55,
 0x51, 0x15, 0x15, 0x51, 0x25, 0x54, 0x51, 0x55, 0x56, 0x67, 0x73, 0x61,
 0x75, 0x53, 0x57, 0x35, 0x00, 0x00, 0x00, 0x00, 0x00, 0x00, 0x00, 0x00,
 0x67, 0x67, 0x57, 0x55, 0x55, 0x37, 0x61, 0x02, 0x55, 0x15, 0x52, 0x55,
 0x55, 0x14, 0x41, 0x05, 0x57, 0x73, 0x52, 0x75, 0x22, 0x12, 0x42, 0x00,
 0x51, 0x45, 0x52, 0x72, 0x25, 0x11, 0x44, 0x00, 0x31, 0x35, 0x62, 0x52,
 0x25, 0x37, 0x64, 0x70, 0x40, 0x00, 0x00, 0x00, 0x00, 0x00, 0x00, 0x00,
 0x02, 0x01, 0x04, 0x06, 0x21, 0x12, 0x01, 0x00, 0x64, 0x67, 0x77, 0x62,
 0x07, 0x50, 0x71, 0x73, 0x50, 0x15, 0x35, 0x57, 0x25, 0x32, 0x71, 0x55,
 0x70, 0x67, 0x67, 0x72, 0x25, 0x52, 0x53, 0x75, 0x00, 0x00, 0x00, 0x60,
 0x00, 0x03, 0x00, 0x00, 0x00, 0x00, 0x00, 0x00, 0x00, 0x00, 0x00, 0x00,
 0x00, 0x00, 0x01, 0x00, 0x00, 0x60, 0x32, 0x70, 0x77, 0x63, 0x53, 0x55,
 0x55, 0x27, 0x22, 0x76, 0x55, 0x21, 0x51, 0x75, 0x52, 0x12, 0x42, 0x73,
 0x77, 0x31, 0x63, 0x72, 0x25, 0x27, 0x22, 0x70, 0x41, 0x00, 0x00, 0x00,
 0x10, 0x60, 0x32, 0x70, 0x00, 0x00, 0x00, 0x00, 0x00, 0x00, 0x00, 0x00,
 0x77, 0x77, 0x77, 0x77, 0x77, 0x77, 0x77, 0x77, 0x55, 0x55, 0x55, 0x55,
 0x55, 0x55, 0x55, 0x55, 0x55, 0x55, 0x55, 0x55, 0x55, 0x55, 0x55, 0x55,
 0x55, 0x55, 0x55, 0x55, 0x55, 0x55, 0x55, 0x55, 0x77, 0x77, 0x77, 0x77,
 0x77, 0x77, 0x77, 0x77, 0x00, 0x00, 0x00, 0x00, 0x00, 0x00, 0x00, 0x00,
 0x77, 0x77, 0x77, 0x77, 0x77, 0x77, 0x77, 0x77, 0x55, 0x55, 0x55, 0x55,
 0x55, 0x55, 0x55, 0x75, 0x55, 0x55, 0x55, 0x55, 0x55, 0x55, 0x55, 0x75,
 0x55, 0x55, 0x55, 0x55, 0x55, 0x55, 0x55, 0x75, 0x77, 0x77, 0x77, 0x77,
 0x77, 0x77, 0x77, 0x77, 0x00, 0x00, 0x00, 0x00, 0x00, 0x00, 0x00, 0x00,
 0xFF, 0xC3, 0x11, 0x88, 0x21, 0x07, 0x00, 0x70, 0xFF, 0xC3, 0x23, 0x4C,
 0x55, 0x25, 0x22, 0x50, 0xFF, 0xC3, 0x47, 0x2E, 0x75, 0x65, 0x73, 0x57,
 0xC3, 0xFF, 0x47, 0x2E, 0x55, 0x25, 0x02, 0x52, 0xC3, 0xFF, 0x23, 0x4C,
 0x72, 0x07, 0x00, 0x70, 0xC3, 0xFF, 0x11, 0x88, 0x01, 0x00, 0x00, 0x00,
 0x25, 0x00, 0x00, 0x70, 0x77, 0x02, 0x20, 0x77, 0x77, 0x52, 0x55, 0x55,
 0x55, 0x02, 0x20, 0x55, 0x75, 0x75, 0x00, 0x50, 0x55, 0x11, 0xCC, 0x55,
 0x27, 0x72, 0x25, 0x57, 0x55, 0x20, 0x02, 0x55, 0x25, 0x22, 0x52, 0x70,
 0x77, 0x20, 0x02, 0x77, 0x00, 0x00, 0x00, 0x00, 0x00, 0x20, 0x02, 0x00,
 0x00, 0x00, 0x10, 0x73, 0x7C, 0x05, 0x50, 0x75, 0x00, 0x00, 0x1F, 0x73,
 0x5C, 0x35, 0xDE, 0x5D, 0x00, 0xF0, 0x1F, 0x73, 0x5C, 0x44, 0x11, 0x50,
 0x00, 0xFF, 0x1F, 0x73, 0x53, 0x53, 0xED, 0x5D, 0xF0, 0xFF, 0x1F, 0x73,
 0x73, 0x50, 0x05, 0x75, 0xFF, 0xFF, 0x1F, 0x73, 0x03, 0x50, 0x05, 0x05,
 0x07, 0x77, 0x55, 0x05, 0x75, 0x77, 0x77, 0x77, 0xF5, 0x55, 0x5D, 0xFD,
 0x55, 0x55, 0x55, 0x55, 0x05, 0x55, 0x41, 0x00, 0x55, 0x55, 0x55, 0x55,
 0xF5, 0x55, 0x5D, 0xDF, 0x55, 0x55, 0x55, 0x55, 0x07, 0x77, 0x55, 0x50,
 0x75, 0x77, 0x77, 0x77, 0x00, 0x00, 0x55, 0x50, 0x05, 0x00, 0x00, 0x00,
 0x50, 0x75, 0x77, 0x27, 0x50, 0x02, 0x20, 0xF2, 0xA2, 0x50, 0x55, 0x75,
 0x27, 0x02, 0x20, 0x02, 0x57, 0x55, 0x55, 0x27, 0x07, 0x33, 0xEE, 0x0F,
 0xA7, 0x50, 0x55, 0x00, 0x77, 0x20, 0x02, 0x02, 0x52, 0x75, 0x77, 0x70,
 0x20, 0x20, 0x02, 0x02, 0xA0, 0x00, 0x00, 0x00, 0x00, 0x20, 0x02, 0x02,
 0x00, 0x00, 0x22, 0x02, 0x62, 0x03, 0x44, 0x70, 0x0F, 0x00, 0x22, 0x02,
 0x72, 0x07, 0x27, 0x70, 0xF0, 0x00, 0x3E, 0xFF, 0x02, 0x70, 0x72, 0x72,
 0x00, 0x0F, 0x22, 0x20, 0x72, 0x57, 0x27, 0x70, 0x00, 0xF0, 0x22, 0x20,
 0x02, 0x50, 0x71, 0x70, 0x00, 0x00, 0x22, 0x20, 0x02, 0x00, 0x00, 0x00 };
